<?xml version="1.0" standalone="no"?>
<!DOCTYPE svg PUBLIC "-//W3C//DTD SVG 20010904//EN"
 "http://www.w3.org/TR/2001/REC-SVG-20010904/DTD/svg10.dtd">
<svg version="1.0" xmlns="http://www.w3.org/2000/svg"
 width="459.000000pt" height="511.000000pt" viewBox="0 0 459.000000 511.000000"
 preserveAspectRatio="xMidYMid meet">

<g transform="translate(0.000000,511.000000) scale(0.100000,-0.100000)"
fill="#008DDA" stroke="none">
<path d="M2195 5045 c-120 -27 -202 -76 -307 -182 -164 -166 -284 -378 -393
-698 -27 -77 -50 -142 -51 -144 -2 -2 -61 9 -132 23 -583 121 -1007 41 -1182
-221 -96 -146 -94 -379 4 -613 39 -92 123 -237 201 -344 61 -85 186 -235 229
-275 14 -14 26 -30 26 -37 0 -7 -35 -52 -77 -99 -222 -247 -383 -517 -434
-730 -24 -100 -25 -250 -3 -326 47 -159 177 -283 363 -343 136 -44 186 -51
391 -50 201 0 265 7 483 51 70 14 129 24 131 22 2 -2 20 -56 41 -119 103 -312
229 -541 388 -707 178 -186 367 -247 564 -184 264 85 507 420 669 924 15 48
33 87 39 87 5 0 62 -11 125 -24 660 -140 1131 -9 1234 343 22 76 21 226 -3
326 -54 222 -206 476 -449 750 -34 38 -62 72 -62 75 0 4 43 55 95 115 291 334
435 627 435 887 0 158 -41 258 -147 359 -201 192 -592 239 -1106 133 -70 -15
-129 -25 -131 -23 -2 2 -20 56 -41 119 -170 518 -428 845 -712 905 -82 18
-110 18 -188 0z m222 -221 c147 -70 293 -258 404 -521 52 -120 119 -306 119
-327 0 -7 -51 -29 -112 -50 -108 -36 -375 -139 -484 -187 l-51 -22 -199 81
c-109 44 -257 100 -327 123 -151 51 -145 27 -66 237 69 184 126 301 201 414
167 249 341 334 515 252z m-1247 -958 c128 -22 220 -43 220 -49 0 -1 -13 -65
-29 -142 -16 -78 -39 -217 -51 -310 -12 -94 -23 -184 -26 -201 -4 -27 -24 -46
-132 -127 -70 -53 -180 -142 -246 -199 -65 -57 -129 -112 -143 -123 l-25 -20
-68 72 c-191 204 -347 456 -395 639 -19 75 -19 199 0 255 41 114 154 188 344
224 116 22 369 13 551 -19z m2783 19 c331 -58 441 -240 331 -546 -64 -178
-208 -397 -380 -579 l-62 -65 -25 20 c-14 11 -78 67 -143 123 -66 57 -176 146
-246 199 -122 91 -127 96 -132 136 -25 199 -61 429 -81 525 -13 64 -23 118
-20 120 11 12 294 66 390 75 104 10 289 6 368 -8z m-1985 -251 c39 -15 72 -32
72 -36 0 -4 -42 -29 -92 -54 -51 -26 -171 -94 -266 -151 -96 -58 -175 -103
-178 -101 -8 9 59 407 77 455 l8 23 153 -54 c84 -29 186 -66 226 -82z m1083
-152 c17 -101 28 -186 25 -189 -2 -3 -69 34 -147 82 -78 48 -197 116 -265 152
-68 35 -124 68 -124 71 0 9 198 87 339 133 l116 38 12 -52 c7 -29 26 -135 44
-235z m-595 -72 c195 -102 366 -202 525 -305 l127 -83 7 -138 c4 -75 6 -285 3
-466 -4 -268 -7 -331 -19 -343 -50 -49 -474 -300 -706 -418 l-103 -52 -102 52
c-177 90 -397 216 -558 319 l-155 99 -7 85 c-8 115 -10 621 -1 755 l6 108 126
81 c69 45 164 105 211 133 124 74 463 253 479 253 8 0 83 -36 167 -80z m-1196
-860 c0 -170 -3 -310 -6 -310 -11 0 -235 183 -304 249 l-65 61 70 66 c77 73
286 244 298 244 4 0 7 -139 7 -310z m2182 223 c57 -45 137 -114 178 -153 l75
-70 -75 -70 c-73 -68 -272 -232 -290 -238 -4 -2 -8 134 -9 308 0 182 4 310 9
308 5 -2 56 -40 112 -85z m-2656 -404 c44 -48 250 -218 378 -315 129 -96 118
-76 137 -249 12 -115 51 -351 74 -450 13 -54 14 -70 4 -76 -20 -12 -274 -58
-389 -70 -137 -15 -333 -6 -432 20 -209 54 -301 156 -299 334 1 169 85 356
272 605 79 105 196 232 213 232 7 0 25 -14 42 -31z m3115 -24 c121 -128 248
-304 325 -450 126 -241 129 -459 6 -566 -152 -134 -464 -163 -883 -83 -74 14
-141 29 -147 33 -9 5 -5 37 13 123 20 96 56 325 81 525 5 39 11 46 92 106 113
83 289 228 372 305 36 34 70 61 77 62 6 0 35 -25 64 -55z m-2240 -626 c83 -50
202 -118 265 -151 63 -33 114 -63 114 -66 0 -14 -404 -162 -441 -162 -17 0
-41 97 -73 295 -23 147 -27 175 -20 175 3 0 73 -41 155 -91z m1419 86 c0 -19
-34 -228 -55 -333 -14 -70 -25 -128 -25 -129 0 -2 -8 -3 -18 -3 -39 0 -442
148 -442 162 0 4 44 30 98 57 53 27 171 95 262 150 157 95 180 108 180 96z
m-628 -488 c134 -56 335 -130 451 -167 20 -6 37 -18 37 -25 0 -24 -71 -218
-122 -335 -143 -325 -317 -517 -493 -543 -94 -15 -216 42 -317 146 -65 68
-158 210 -213 324 -47 98 -142 343 -151 392 l-6 30 93 29 c106 33 344 123 464
176 44 20 85 36 92 36 7 0 81 -29 165 -63z"/>
<path d="M2215 3064 c-129 -27 -210 -69 -291 -150 -75 -74 -119 -160 -141
-273 -28 -142 5 -284 95 -402 212 -282 645 -271 840 21 61 91 87 176 87 290 0
206 -106 376 -290 465 -95 46 -218 66 -300 49z"/>
</g>
</svg>
